<?xml version="1.0" standalone="no"?>
<!DOCTYPE svg PUBLIC "-//W3C//DTD SVG 20010904//EN"
 "http://www.w3.org/TR/2001/REC-SVG-20010904/DTD/svg10.dtd">
<svg version="1.0" xmlns="http://www.w3.org/2000/svg"
 width="210.000000pt" height="210.000000pt" viewBox="0 0 210.000000 210.000000"
 preserveAspectRatio="xMidYMid meet">
<metadata>
Created by potrace 1.11, written by Peter Selinger 2001-2013
</metadata>
<g transform="translate(0.000000,210.000000) scale(0.100000,-0.100000)"
fill="#000000" stroke="none">
<path d="M86 1433 c-2 -2 -20 -5 -42 -6 l-39 -4 -3 -149 -2 -149 45 1 c24 0
48 4 52 8 4 4 8 53 8 109 l0 102 93 1 c53 0 110 -6 135 -14 165 -54 143 -294
-28 -307 -16 -2 -30 -4 -30 -5 0 -9 -51 -7 -63 2 -12 10 -14 10 -9 1 6 -9 -1
-12 -23 -10 -16 1 -30 4 -30 7 0 3 -33 5 -73 5 l-72 0 -3 -180 -2 -181 49 0
c37 -1 50 3 53 15 3 9 4 69 3 133 -1 132 -3 129 82 117 24 -3 47 -1 53 5 7 7
10 6 10 -2 0 -6 6 -9 13 -7 6 2 32 7 57 10 25 4 52 8 60 9 27 4 74 34 101 63
42 45 62 93 65 156 3 59 -20 147 -38 147 -5 0 -7 4 -4 9 8 12 -68 79 -99 87
-14 3 -25 9 -25 13 0 4 -8 8 -17 9 -31 4 -274 8 -277 5z"/>
<path d="M810 1430 c0 -3 -19 -5 -42 -5 l-43 0 0 -150 0 -150 38 2 c22 1 41 4
44 7 3 3 6 51 7 108 l1 103 90 1 c51 0 96 -4 104 -10 12 -9 13 -8 6 4 -6 12
-5 13 6 3 7 -7 21 -13 30 -13 18 0 101 -69 84 -70 -5 0 -3 -5 5 -10 18 -11 21
-137 4 -148 -6 -4 -13 -14 -16 -23 -10 -25 -78 -53 -133 -54 -28 -1 -55 -3
-60 -6 -6 -3 -21 -4 -35 -2 -14 2 -59 5 -101 6 l-76 3 0 -178 c-1 -194 -4
-184 60 -187 15 0 27 5 28 12 0 6 1 66 2 132 l2 120 95 2 c150 3 195 11 243
45 45 31 65 56 88 107 20 44 32 151 17 151 -4 0 -8 7 -8 15 0 31 -70 141 -82
129 -3 -2 -13 5 -23 16 -10 11 -24 20 -32 20 -7 0 -13 4 -13 8 0 5 -10 8 -22
7 -13 -1 -27 0 -33 4 -13 7 -235 9 -235 1z"/>
<path d="M1510 1434 c0 -6 -12 -10 -28 -8 -50 6 -52 -1 -49 -156 l2 -144 38 1
c21 0 41 3 44 7 3 3 6 52 7 108 l1 103 90 1 c50 0 107 -5 128 -12 20 -7 37
-11 37 -8 0 12 62 -53 75 -79 20 -39 19 -100 -1 -140 -18 -33 -44 -64 -44 -50
0 4 -4 2 -9 -6 -5 -8 -15 -16 -23 -17 -39 -8 -59 -13 -68 -19 -6 -3 -10 -1
-10 6 0 8 -4 8 -15 -1 -12 -10 -15 -10 -15 1 0 9 -3 10 -8 4 -7 -10 -92 -15
-92 -5 0 4 -99 5 -129 1 -5 0 -10 -78 -11 -175 -1 -189 -2 -184 59 -182 l34 1
0 130 c0 145 1 147 69 135 21 -4 41 -3 44 1 3 5 12 5 22 0 9 -4 26 -7 37 -5
11 2 38 5 60 7 22 2 60 13 85 25 44 20 100 71 100 92 0 5 5 10 12 10 6 0 9 3
5 6 -3 3 -1 18 4 33 19 49 14 134 -11 187 -37 78 -96 123 -181 140 -61 11
-239 11 -239 0 0 -6 -5 -4 -10 4 -5 8 -10 10 -10 4z"/>
</g>
</svg>
