<svg xmlns="http://www.w3.org/2000/svg" width="473" height="62">
    <rect id="backgroundrect" width="100%" height="100%" x="0" y="0" fill="none" stroke="none" class="" style=""/>

    <g class="currentLayer" style="">
        <title>Layer 1</title>
        <g class="" id="svg_5">
            <path style="fill:#AEDFD9; stroke:none;" d="M309,-4.76837158203125e-7 L309,60.99999952316284 L316,60.99999952316284 C316,58.339999523162845 315.904,55.65799952316283 316.019,52.99999952316284 C316.174,49.44199952316285 320.154,39.64099952316283 325.251,42.03699952316285 C335.439,46.825999523162835 333.292,60.950999523162835 347,60.99999952316284 L329,35.99999952316284 L329,34.99999952316284 L345,17.999999523162842 C332.953,18.141999523162838 323.953,32.04699952316284 316,39.99999952316284 L316,-4.76837158203125e-7 L309,-4.76837158203125e-7 M0,1.9999995231628418 L0,24.999999523162842 L8,24.999999523162842 L8,7.999999523162842 C14.530000000000001,7.999999523162842 23.11699999999999,6.566999523162849 28.956999999999994,10.089999523162845 C36.263000000000005,14.496999523162856 37.147999999999996,26.277999523162833 29.89500000000001,31.25799952316285 C23.132000000000005,35.90099952316285 7.9609999999999985,32.99999952316284 0,32.99999952316284 L0,60.99999952316284 L8,60.99999952316284 L8,39.99999952316284 C16.28,39.99999952316284 26.61099999999999,41.59299952316283 33.985000000000014,36.994999523162846 C45.965,29.523999523162843 44.79599999999999,11.178999523162844 32.99600000000001,4.22799952316285 C24.46799999999999,-0.7950004768371457 9.607,1.9999995231628418 0,1.9999995231628418 M56,1.9999995231628418 L56,24.999999523162842 L63,24.999999523162842 L63,7.999999523162842 C69.59299999999999,7.999999523162842 78.06,6.611999523162837 83.98500000000001,10.089999523162845 C92.03399999999999,14.81299952316283 92.644,27.247999523162832 83.96000000000001,31.82099952316284 C76.94399999999999,35.51599952316283 63.80500000000001,32.99999952316284 56,32.99999952316284 L56,60.99999952316284 L63,60.99999952316284 L63,39.99999952316284 C71.167,39.99999952316284 81.69800000000001,41.63699952316284 88.99600000000001,37.14599952316283 C101.251,29.603999523162855 100.191,11.05699952316283 87.999,4.089999523162845 C79.655,-0.6790004768371602 65.33099999999999,1.9999995231628418 56,1.9999995231628418 M111,1.9999995231628418 L111,24.999999523162842 L118,24.999999523162842 L118,7.999999523162842 C124.59299999999999,7.999999523162842 133.059,6.612999523162841 138.985,10.089999523162845 C146.899,14.732999523162846 147.90499999999997,26.025999523162852 139.95600000000002,31.25799952316285 C133.157,35.73199952316284 118.90100000000001,32.99999952316284 111,32.99999952316284 L111,60.99999952316284 L118,60.99999952316284 L118,39.99999952316284 C126.22900000000001,39.99999952316284 136.526,41.63499952316283 143.985,37.44199952316285 C156.07100000000003,30.649999523162847 155.644,11.468999523162836 143.961,4.532999523162829 C135.212,-0.6600004768371548 120.83000000000001,1.9999995231628418 111,1.9999995231628418 M185,1.9999995231628418 L185,60.99999952316284 L192,60.99999952316284 L192,15.999999523162842 L205,37.99999952316284 C212.41500000000002,31.450999523162835 199.983,7.744999523162846 192.61,3.0279995231628334 C190.449,1.6459995231628284 187.44099999999997,2.008999523162828 185,1.9999995231628418 M235,15.999999523162842 L236,15.999999523162842 L236,60.99999952316284 L243,60.99999952316284 L243,1.9999995231628418 C230.09500000000003,2.1529995231628334 223.392,24.021999523162833 217.719,33.99999952316284 C215.86700000000002,37.25699952316285 210.459,43.69399952316283 211.735,47.68099952316285 C214.175,55.30299952316284 221.916,40.63599952316284 222.85000000000002,38.99999952316284 L227.86,29.999999523162842 C230.416,25.418999523162853 233.204,20.93599952316285 235,15.999999523162842 M259,21.999999523162842 L261,26.999999523162842 C273.365,21.41399952316283 285.588,19.740999523162856 287,36.99999952316284 C282.048,36.039999523162834 277.089,34.70799952316284 272,35.093999523162836 C260.481,35.968999523162836 249.20600000000002,49.13999952316283 261.108,58.48599952316283 C269.341,64.95099952316284 281.308,60.00299952316283 288,53.99999952316284 C288.414,59.42799952316284 290.744,60.82899952316285 296,60.99999952316284 C295.496,43.585999523162855 295.963,11.653999523162838 270,17.528999523162838 C266.142,18.40199952316283 262.548,20.313999523162835 259,21.999999523162842 M392,50.99999952316284 C386.014,48.92499952316285 384.22,53.27899952316284 379,55.25799952316285 C369.773,58.75599952316284 361.367,50.60899952316285 360,41.99999952316284 L377,41.99999952316284 C381.278,41.99999952316284 390.904,43.78899952316283 394.39300000000003,40.97199952316285 C398.919,37.317999523162854 392.454,26.14599952316283 389.671,23.184999523162844 C379.17,12.012999523162847 358.565,16.65799952316283 353.61,30.999999523162842 C352.295,34.80299952316284 351.764,39.02999952316284 352.465,42.99999952316284 C355.503,60.184999523162844 385,71.15199952316283 392,50.99999952316284 M415,26.999999523162842 L414,26.999999523162842 L414,17.999999523162842 L408,17.999999523162842 L408,60.99999952316284 L415,60.99999952316284 C415,46.313999523162835 410.746,26.896999523162833 430,23.999999523162842 L430,16.999999523162842 C423.28099999999995,18.404999523162843 418.29200000000003,20.710999523162855 415,26.999999523162842 M440,50.99999952316284 L438,55.99999952316284 C445.68499999999995,60.83299952316284 455.08299999999997,63.061999523162854 463.999,60.365999523162856 C470.63699999999994,58.357999523162846 475.59900000000005,50.859999523162855 471.972,44.04399952316285 C468.16999999999996,36.89699952316283 444.98699999999997,37.42399952316285 446.971,28.014999523162828 C449.81100000000004,14.542999523162848 467.15200000000004,29.799999523162853 472,21.999999523162842 C462.778,16.637999523162847 430.28200000000004,15.411999523162848 441.179,34.89199952316284 C445.774,43.105999523162836 458.994,39.38099952316284 464.52200000000005,46.22799952316285 C468.173,50.74899952316284 463.22400000000005,54.829999523162854 458.999,56.05299952316284 C451.91600000000005,58.103999523162855 446.19100000000003,53.551999523162834 440,50.99999952316284 z" id="svg_1" class=""/>
            <path style="fill:#AEDFD9; stroke:none;" d="M309,-4.76837158203125e-7 L309,60.99999952316284 L316,60.99999952316284 C316,58.339999523162845 315.904,55.65799952316283 316.019,52.99999952316284 C316.174,49.44199952316285 320.154,39.64099952316283 325.251,42.03699952316285 C335.439,46.825999523162835 333.292,60.950999523162835 347,60.99999952316284 L329,35.99999952316284 L329,34.99999952316284 L345,17.999999523162842 C332.953,18.141999523162838 323.953,32.04699952316284 316,39.99999952316284 L316,-4.76837158203125e-7 L309,-4.76837158203125e-7 M0,1.9999995231628418 L0,24.999999523162842 L8,24.999999523162842 L8,7.999999523162842 C14.530000000000001,7.999999523162842 23.11699999999999,6.566999523162849 28.956999999999994,10.089999523162845 C36.263000000000005,14.496999523162856 37.147999999999996,26.277999523162833 29.89500000000001,31.25799952316285 C23.132000000000005,35.90099952316285 7.9609999999999985,32.99999952316284 0,32.99999952316284 L0,60.99999952316284 L8,60.99999952316284 L8,39.99999952316284 C16.28,39.99999952316284 26.61099999999999,41.59299952316283 33.985000000000014,36.994999523162846 C45.965,29.523999523162843 44.79599999999999,11.178999523162844 32.99600000000001,4.22799952316285 C24.46799999999999,-0.7950004768371457 9.607,1.9999995231628418 0,1.9999995231628418 M56,1.9999995231628418 L56,24.999999523162842 L63,24.999999523162842 L63,7.999999523162842 C69.59299999999999,7.999999523162842 78.06,6.611999523162837 83.98500000000001,10.089999523162845 C92.03399999999999,14.81299952316283 92.644,27.247999523162832 83.96000000000001,31.82099952316284 C76.94399999999999,35.51599952316283 63.80500000000001,32.99999952316284 56,32.99999952316284 L56,60.99999952316284 L63,60.99999952316284 L63,39.99999952316284 C71.167,39.99999952316284 81.69800000000001,41.63699952316284 88.99600000000001,37.14599952316283 C101.251,29.603999523162855 100.191,11.05699952316283 87.999,4.089999523162845 C79.655,-0.6790004768371602 65.33099999999999,1.9999995231628418 56,1.9999995231628418 M111,1.9999995231628418 L111,24.999999523162842 L118,24.999999523162842 L118,7.999999523162842 C124.59299999999999,7.999999523162842 133.059,6.612999523162841 138.985,10.089999523162845 C146.899,14.732999523162846 147.90499999999997,26.025999523162852 139.95600000000002,31.25799952316285 C133.157,35.73199952316284 118.90100000000001,32.99999952316284 111,32.99999952316284 L111,60.99999952316284 L118,60.99999952316284 L118,39.99999952316284 C126.22900000000001,39.99999952316284 136.526,41.63499952316283 143.985,37.44199952316285 C156.07100000000003,30.649999523162847 155.644,11.468999523162836 143.961,4.532999523162829 C135.212,-0.6600004768371548 120.83000000000001,1.9999995231628418 111,1.9999995231628418 M185,1.9999995231628418 L185,60.99999952316284 L192,60.99999952316284 L192,15.999999523162842 L205,37.99999952316284 C212.41500000000002,31.450999523162835 199.983,7.744999523162846 192.61,3.0279995231628334 C190.449,1.6459995231628284 187.44099999999997,2.008999523162828 185,1.9999995231628418 M235,15.999999523162842 L236,15.999999523162842 L236,60.99999952316284 L243,60.99999952316284 L243,1.9999995231628418 C230.09500000000003,2.1529995231628334 223.392,24.021999523162833 217.719,33.99999952316284 C215.86700000000002,37.25699952316285 210.459,43.69399952316283 211.735,47.68099952316285 C214.175,55.30299952316284 221.916,40.63599952316284 222.85000000000002,38.99999952316284 L227.86,29.999999523162842 C230.416,25.418999523162853 233.204,20.93599952316285 235,15.999999523162842 M259,21.999999523162842 L261,26.999999523162842 C273.365,21.41399952316283 285.588,19.740999523162856 287,36.99999952316284 C282.048,36.039999523162834 277.089,34.70799952316284 272,35.093999523162836 C260.481,35.968999523162836 249.20600000000002,49.13999952316283 261.108,58.48599952316283 C269.341,64.95099952316284 281.308,60.00299952316283 288,53.99999952316284 C288.414,59.42799952316284 290.744,60.82899952316285 296,60.99999952316284 C295.496,43.585999523162855 295.963,11.653999523162838 270,17.528999523162838 C266.142,18.40199952316283 262.548,20.313999523162835 259,21.999999523162842 M392,50.99999952316284 C386.014,48.92499952316285 384.22,53.27899952316284 379,55.25799952316285 C369.773,58.75599952316284 361.367,50.60899952316285 360,41.99999952316284 L377,41.99999952316284 C381.278,41.99999952316284 390.904,43.78899952316283 394.39300000000003,40.97199952316285 C398.919,37.317999523162854 392.454,26.14599952316283 389.671,23.184999523162844 C379.17,12.012999523162847 358.565,16.65799952316283 353.61,30.999999523162842 C352.295,34.80299952316284 351.764,39.02999952316284 352.465,42.99999952316284 C355.503,60.184999523162844 385,71.15199952316283 392,50.99999952316284 M415,26.999999523162842 L414,26.999999523162842 L414,17.999999523162842 L408,17.999999523162842 L408,60.99999952316284 L415,60.99999952316284 C415,46.313999523162835 410.746,26.896999523162833 430,23.999999523162842 L430,16.999999523162842 C423.28099999999995,18.404999523162843 418.29200000000003,20.710999523162855 415,26.999999523162842 M440,50.99999952316284 L438,55.99999952316284 C445.68499999999995,60.83299952316284 455.08299999999997,63.061999523162854 463.999,60.365999523162856 C470.63699999999994,58.357999523162846 475.59900000000005,50.859999523162855 471.972,44.04399952316285 C468.16999999999996,36.89699952316283 444.98699999999997,37.42399952316285 446.971,28.014999523162828 C449.81100000000004,14.542999523162848 467.15200000000004,29.799999523162853 472,21.999999523162842 C462.778,16.637999523162847 430.28200000000004,15.411999523162848 441.179,34.89199952316284 C445.774,43.105999523162836 458.994,39.38099952316284 464.52200000000005,46.22799952316285 C468.173,50.74899952316284 463.22400000000005,54.829999523162854 458.999,56.05299952316284 C451.91600000000005,58.103999523162855 446.19100000000003,53.551999523162834 440,50.99999952316284 z" class="" id="svg_4"/>
            <path style="fill:#000000; stroke:none;" d="M359,35.99999952316284 L389,35.99999952316284 C385.541,16.60699952316284 364.494,19.896999523162833 359,35.99999952316284 M271.001,39.53299952316283 C256.423,43.093999523162836 265.169,58.557999523162835 278,55.605999523162836 C282.972,54.46199952316283 291.211,46.15099952316285 285.397,41.13999952316283 C283.7485,39.718999523162836 281.13325,39.07699952316284 278.43825,38.91036952316284 C275.74325,38.74374952316285 272.9685,39.05249952316285 271.001,39.53299952316283 z" id="svg_2" class=""/>
            <path style="fill:#000000; stroke:none;" d="M359,35.99999952316284 L389,35.99999952316284 C385.541,16.60699952316284 364.494,19.896999523162833 359,35.99999952316284 M271.001,39.53299952316283 C256.423,43.093999523162836 265.169,58.557999523162835 278,55.605999523162836 C282.972,54.46199952316283 291.211,46.15099952316285 285.397,41.13999952316283 C283.7485,39.718999523162836 281.13325,39.07699952316284 278.43825,38.91036952316284 C275.74325,38.74374952316285 272.9685,39.05249952316285 271.001,39.53299952316283 z" class="" id="svg_3"/>
        </g>
    </g>
</svg>